<svg width="153" height="121" viewBox="0 0 153 121" fill="none" xmlns="http://www.w3.org/2000/svg">
<path d="M105.206 77.3923C99.2791 71.1432 92.1577 66.5974 84.6571 64.1219C92.1302 57.3819 96.8355 47.6293 96.8355 36.7974C96.8355 16.5073 80.3283 0 60.0382 0C39.748 0 23.2405 16.5073 23.2405 36.7974C23.2405 47.6293 27.9458 57.3819 35.4189 64.1219C27.918 66.5977 20.7966 71.1438 14.8697 77.3926C5.28089 87.502 0 100.597 0 114.266V120.076H120.076V114.266C120.076 100.597 114.795 87.502 105.206 77.3923ZM34.8607 36.7974C34.8607 22.9147 46.1552 11.6202 60.0378 11.6202C73.9205 11.6202 85.215 22.9147 85.215 36.7974C85.215 50.6801 73.9205 61.9746 60.0378 61.9746C46.1552 61.9746 34.8607 50.6801 34.8607 36.7974ZM12.0296 108.455C14.9133 88.1531 32.5265 73.5948 48.4176 73.5948H71.6581C87.5492 73.5948 105.162 88.1531 108.046 108.455H12.0296Z" fill="white"/>
<path d="M135.57 50.3543V32.924H123.949V50.3543H106.519V61.9746H123.949V79.4049H135.57V61.9746H153V50.3543H135.57Z" fill="white"/>
</svg>
